<svg xmlns="http://www.w3.org/2000/svg" width="512" height="512" viewBox="0 0 512 512">
  <defs>
    <linearGradient id="bg" x1="0" y1="0" x2="1" y2="1">
      <stop offset="0" stop-color="#fff6fb"/>
      <stop offset="1" stop-color="#eef7ff"/>
    </linearGradient>
    <linearGradient id="shirt" x1="0" y1="0" x2="1" y2="1">
      <stop offset="0" stop-color="#7b5cff"/>
      <stop offset="1" stop-color="#4fd3ff"/>
    </linearGradient>
  </defs>
  <rect width="512" height="512" rx="120" fill="url(#bg)"/>
  <circle cx="256" cy="226" r="116" fill="#ffd9c8"/>
  <!-- Hair: long, side-swept (more feminine) -->
  <path d="M152 216c22-78 86-126 104-126 58 0 110 60 110 140 0 18-2 34-6 48-28-30-64-46-104-46-44 0-82 18-104 46-4-14-6-38 0-62z" fill="#4a2f5a"/>
  <path d="M170 252c-10 46-10 94 12 140 8 16 22 34 34 44 8 6 18 4 18-6 0-10-6-22-10-30-16-38-20-76-10-128 2-10-8-16-16-10-10 8-20 14-28 18z" fill="#4a2f5a" opacity="0.95"/>
  <path d="M342 252c10 46 10 94-12 140-8 16-22 34-34 44-8 6-18 4-18-6 0-10 6-22 10-30 16-38 20-76 10-128-2-10 8-16 16-10 10 8 20 14 28 18z" fill="#4a2f5a" opacity="0.95"/>
  <circle cx="214" cy="234" r="12" fill="#2a1c17"/>
  <circle cx="298" cy="234" r="12" fill="#2a1c17"/>
  <path d="M220 286c12 10 24 14 36 14s24-4 36-14" fill="none" stroke="#7a3b2e" stroke-width="10" stroke-linecap="round"/>
  <!-- Earrings -->
  <circle cx="182" cy="256" r="8" fill="#ffffff" opacity="0.85"/>
  <circle cx="330" cy="256" r="8" fill="#ffffff" opacity="0.85"/>
  <path d="M166 336c28-14 58-22 90-22s62 8 90 22c10 5 14 17 10 27-6 14-15 30-28 44-23 25-55 43-72 43s-49-18-72-43c-13-14-22-30-28-44-4-10 0-22 10-27z" fill="url(#shirt)"/>
  <circle cx="340" cy="256" r="10" fill="#ffd9c8"/>
  <circle cx="172" cy="256" r="10" fill="#ffd9c8"/>
</svg>
