<svg xmlns="http://www.w3.org/2000/svg" width="512" height="512" viewBox="0 0 512 512">
  <defs>
    <linearGradient id="bg" x1="0" y1="0" x2="1" y2="1">
      <stop offset="0" stop-color="#eef7ff"/>
      <stop offset="1" stop-color="#fff0f7"/>
    </linearGradient>
    <linearGradient id="shirt" x1="0" y1="0" x2="1" y2="1">
      <stop offset="0" stop-color="#2fd3c8"/>
      <stop offset="1" stop-color="#7b5cff"/>
    </linearGradient>
  </defs>
  <rect width="512" height="512" rx="120" fill="url(#bg)"/>
  <circle cx="256" cy="226" r="116" fill="#f8d1bf"/>
  <path d="M176 170c18-46 50-74 80-74s62 28 80 74c-24-14-52-22-80-22s-56 8-80 22z" fill="#3b2a22"/>
  <circle cx="214" cy="234" r="12" fill="#2a1c17"/>
  <circle cx="298" cy="234" r="12" fill="#2a1c17"/>
  <path d="M222 290c10 8 22 12 34 12s24-4 34-12" fill="none" stroke="#7a3b2e" stroke-width="10" stroke-linecap="round"/>
  <path d="M160 338c30-16 62-24 96-24s66 8 96 24c10 5 14 17 10 27-6 14-15 30-28 44-23 25-56 41-78 41s-55-16-78-41c-13-14-22-30-28-44-4-10 0-22 10-27z" fill="url(#shirt)"/>
  <circle cx="206" cy="258" r="6" fill="#d88b7a" opacity="0.6"/>
  <circle cx="306" cy="258" r="6" fill="#d88b7a" opacity="0.6"/>
</svg>
